<svg width="354" height="81" viewBox="0 0 354 81" fill="none" xmlns="http://www.w3.org/2000/svg">
<path fill-rule="evenodd" clip-rule="evenodd" d="M40.3331 2.19574C34.7862 2.02587 29.2822 3.2111 24.3033 5.64771L24.2917 5.65337C17.8146 8.72956 12.321 13.5289 8.42025 19.5192C4.52184 25.506 2.36642 32.4485 2.19272 39.5778V41.9789C2.56325 51.9974 6.90647 61.4634 14.2743 68.3098C21.6469 75.1607 31.4483 78.831 41.5354 78.5183C51.6226 78.2056 61.1746 73.9353 68.1034 66.6411C75.0323 59.3468 78.7744 49.6221 78.5108 39.5932L78.51 39.5647C78.51 28.0601 73.0742 18.8923 65.5566 12.4959C58.0203 6.08367 48.4469 2.50816 40.3331 2.19574ZM23.3407 3.68924C28.6412 1.09642 34.5004 -0.164387 40.4051 0.0171672L40.4134 0.0174252C49.0467 0.348669 59.0892 4.12394 66.9824 10.8399C74.8926 17.5703 80.6987 27.3055 80.7031 39.5506C80.9779 50.1506 77.0211 60.4279 69.6977 68.1376C62.3709 75.8508 52.2703 80.3663 41.6038 80.697C30.9373 81.0277 20.573 77.1465 12.7769 69.9022C4.98089 62.6579 0.387306 52.6399 0.000719586 42.0382L0 42.0185V39.5387C0.181081 32.0023 2.45869 24.6631 6.57953 18.3348C10.6992 12.0082 16.5007 6.93909 23.3407 3.68924Z" fill="#AB47BC"/>
<path fill-rule="evenodd" clip-rule="evenodd" d="M56.242 20.5937C53.0465 13.2711 48.2714 6.73578 42.2552 1.44973L42.7596 0.882391C48.8597 6.2421 53.7012 12.8686 56.9412 20.2932C61.2104 30.1774 62.365 41.1175 60.2517 51.6672C58.1384 62.2168 52.857 71.8814 45.1044 79.3858L44.5731 78.8433C52.2152 71.4458 57.4214 61.9187 59.5047 51.5193C61.5879 41.12 60.4503 30.337 56.242 20.5937Z" fill="#AB47BC"/>
<path fill-rule="evenodd" clip-rule="evenodd" d="M15.9664 24.4881C17.9057 16.004 22.359 8.29265 28.7513 2.34992L29.2716 2.90294C22.9921 8.7407 18.617 16.3154 16.7107 24.6492C15.7201 29.8408 15.6348 35.1632 16.4591 40.3834L16.4607 40.3935C17.2362 46.3469 18.9231 52.1475 21.4628 57.594C24.0299 63.1458 26.4093 68.2696 31.8566 72.7254C35.3297 75.4856 39.3266 77.5213 43.6091 78.7109L43.4042 79.4401C39.0222 78.2229 34.9325 76.1398 31.379 73.3153L31.3749 73.3119C25.7762 68.7332 23.3362 63.4586 20.7716 57.9122C18.2 52.3973 16.4916 46.524 15.7059 40.4958C14.8685 35.1891 14.9559 29.7787 15.9636 24.5014L15.9664 24.4881Z" fill="#AB47BC"/>
<path fill-rule="evenodd" clip-rule="evenodd" d="M29.9354 44.1003C25.0747 31.4692 22.9871 17.9509 23.8126 4.45203L24.5729 4.49797C23.7539 17.8891 25.8249 31.2995 30.6468 43.8298C35.4687 56.3601 42.9297 67.7207 52.5302 77.1496L51.9949 77.6882C42.3171 68.1835 34.7961 56.7315 29.9354 44.1003Z" fill="#AB47BC"/>
<path fill-rule="evenodd" clip-rule="evenodd" d="M54.2258 15.4157C43.1668 9.21755 30.3283 6.90791 17.7855 8.86025L17.6677 8.11219C30.3808 6.13334 43.3937 8.47469 54.6026 14.7577L54.608 14.7607C66.7833 21.846 75.7784 33.2848 79.7562 46.7405L79.0254 46.9539C75.1026 33.6843 66.2323 22.4037 54.2258 15.4157Z" fill="#AB47BC"/>
<path fill-rule="evenodd" clip-rule="evenodd" d="M9.16744 29.6931C8.09033 38.8262 8.69179 49.9227 14.7183 59.4976C18.0796 64.713 22.4958 69.1757 27.6862 72.6024C33.3557 76.0544 39.8034 78.0424 46.4429 78.3853L46.4034 79.1415C39.6347 78.7918 33.0616 76.7646 27.2824 73.2445L27.2706 73.2373C21.989 69.7515 17.4955 65.2108 14.0758 59.9042L14.0736 59.9008C7.91705 50.1204 7.32366 38.8243 8.41094 29.605C9.49873 20.3813 12.2741 13.1902 12.9054 11.5821L13.6149 11.8574C12.9926 13.4427 10.2441 20.5639 9.16744 29.6931Z" fill="#AB47BC"/>
<path fill-rule="evenodd" clip-rule="evenodd" d="M19.2206 44.3487C13.3558 37.5581 8.73841 29.795 5.57912 21.4142L6.29237 21.1485C9.42047 29.4466 13.9924 37.133 19.7993 43.8564L19.801 43.8583C27.9087 53.3727 38.1887 60.8209 49.7821 65.5814C54.8856 67.65 60.19 69.189 65.6115 70.1742L65.4746 70.919C60.0012 69.9245 54.646 68.3706 49.4938 66.2822C37.7881 61.4758 27.407 53.955 19.2206 44.3487Z" fill="#AB47BC"/>
<path fill-rule="evenodd" clip-rule="evenodd" d="M43.2581 25.4646C30.3426 22.3441 16.8629 22.3441 3.94748 25.4646L3.76759 24.7289C16.8007 21.5799 30.4032 21.5798 43.4363 24.7285C57.0641 27.8937 69.6144 34.5671 79.8273 44.0788L79.3065 44.6314C69.1908 35.2101 56.7597 28.6002 43.2614 25.4654L43.2581 25.4646Z" fill="#AB47BC"/>
<path fill-rule="evenodd" clip-rule="evenodd" d="M66.7458 12.4339C63.9839 11.4902 41.2838 3.73362 22.1278 16.3208L22.1234 16.3237C19.787 17.814 7.6802 25.805 4.26799 40.7993C3.22314 45.3198 3.08463 50.002 3.86079 54.5756L3.10972 54.7016C2.31694 50.03 2.45808 45.2489 3.52523 40.6316C7.00726 25.3317 19.3398 17.1998 21.7099 15.6878C41.1851 2.89248 64.2007 10.7628 66.9857 11.7152C67.0262 11.7291 67.0624 11.7415 67.0943 11.7523L66.8478 12.4687C66.8175 12.4584 66.7835 12.4468 66.7458 12.4339Z" fill="#AB47BC"/>
<path fill-rule="evenodd" clip-rule="evenodd" d="M49.4284 7.31789C43.0168 5.78987 36.356 5.60171 29.8675 6.76539C23.378 7.92926 17.2024 10.42 11.7316 14.0799L11.3063 13.4518C16.8647 9.73333 23.1389 7.20272 29.7323 6.02025C36.3256 4.83777 43.094 5.02918 49.6091 6.58232L49.6151 6.58377C55.7453 8.1514 61.4824 10.9635 66.4659 14.8429C71.4494 18.7223 75.5713 23.5851 78.572 29.1254L77.9013 29.4843C74.9505 24.0361 70.8971 19.254 65.9963 15.439C61.0964 11.6246 55.4555 8.85963 49.4284 7.31789Z" fill="#AB47BC"/>
<path fill-rule="evenodd" clip-rule="evenodd" d="M60.1119 53.2838C67.855 41.5522 70.727 27.2958 68.1262 13.5047L68.8748 13.3652C71.5119 27.3486 68.5998 41.8039 60.7487 53.6992C52.8977 65.5944 40.7179 74.0053 26.7642 77.1677L26.5949 76.4295C40.3566 73.3106 52.3688 65.0154 60.1119 53.2838Z" fill="#AB47BC"/>
<path fill-rule="evenodd" clip-rule="evenodd" d="M70.4357 15.0515C71.2058 16.7986 79.9219 37.2353 67.4903 56.765C54.2149 77.6797 29.2899 77.6796 27.9931 77.6796L27.9914 76.9225C29.2612 76.9225 53.8005 76.9136 66.8461 56.361C79.0563 37.1795 70.4957 17.0743 69.738 15.3554L70.4357 15.0515Z" fill="#AB47BC"/>
<path fill-rule="evenodd" clip-rule="evenodd" d="M47.3053 37.0417C40.7269 25.1017 31.8083 14.5931 21.0762 6.13684L21.5493 5.54346C32.3612 14.0626 41.3461 24.6493 47.9734 36.6781C54.3985 48.3526 58.4475 61.1709 59.8887 74.401L59.1315 74.4825C57.701 61.3513 53.6824 48.6289 47.3053 37.0417Z" fill="#AB47BC"/>
<path fill-rule="evenodd" clip-rule="evenodd" d="M79.4822 47.8425C78.6995 50.0197 71.662 69.5948 49.4346 75.0423C37.6697 77.9219 27.5235 75.2171 20.2381 71.7075C12.9565 68.1998 8.51415 63.8801 8.13105 63.489L8.67678 62.9608C9.01845 63.3096 13.3908 67.5676 20.5702 71.0261C27.7458 74.4828 37.7072 77.1329 49.2524 74.3071C71.0753 68.9587 77.9919 49.736 78.7684 47.5782C78.7902 47.5176 78.8071 47.4705 78.8194 47.4375L79.5336 47.7008C79.5213 47.7338 79.5042 47.7813 79.4822 47.8425Z" fill="#AB47BC"/>
<path fill-rule="evenodd" clip-rule="evenodd" d="M15.8172 63.8133C10.334 60.0773 5.65383 55.2934 2.04986 49.7406L2.68989 49.3301C6.23903 54.7984 10.848 59.5095 16.2478 63.1888C21.6464 66.8672 27.7279 69.4405 34.1372 70.7587C40.8135 71.9749 47.669 71.8261 54.2855 70.3213C60.9034 68.8161 67.1431 65.9859 72.6241 62.0035L73.0736 62.6148C67.509 66.6579 61.1742 69.5313 54.4554 71.0594C47.7365 72.5875 40.775 72.7383 33.9955 71.5027L33.9871 71.5011C27.4773 70.1628 21.3004 67.5493 15.8172 63.8133Z" fill="#AB47BC"/>
<path fill-rule="evenodd" clip-rule="evenodd" d="M74.0669 20.8986C61.9056 14.7595 47.9659 13.0467 34.667 16.0576C21.368 19.0684 9.54899 26.6128 1.26133 37.3815L0.65638 36.9214C9.05217 26.0122 21.0254 18.3694 34.4978 15.3193C47.9702 12.2691 62.0918 14.0043 74.4117 20.2235L74.0669 20.8986Z" fill="#AB47BC"/>
<path d="M99.7277 44.4463C99.5224 44.4634 99.3167 44.4184 99.1359 44.3166C98.9552 44.2148 98.8076 44.0607 98.7109 43.8735C98.6266 43.702 98.5825 43.5127 98.5825 43.3206C98.5825 43.1284 98.6266 42.9389 98.7109 42.7675L110.227 14.6415C110.302 14.4004 110.45 14.1908 110.651 14.0447C110.852 13.8986 111.094 13.8239 111.34 13.8316C111.581 13.8312 111.817 13.9093 112.014 14.0546C112.21 14.2 112.357 14.4054 112.434 14.6415L123.95 42.7675C124.052 42.9365 124.106 43.1313 124.106 43.3302C124.106 43.5292 124.052 43.7242 123.95 43.8932C123.848 44.0704 123.701 44.2157 123.525 44.3132C123.35 44.4107 123.151 44.4567 122.951 44.4463C122.728 44.4539 122.507 44.3921 122.318 44.2686C122.134 44.1236 121.989 43.9333 121.896 43.7155L111.316 17.6527L100.745 43.7155C100.664 43.9409 100.516 44.1344 100.323 44.2686C100.143 44.3792 99.9376 44.4404 99.7277 44.4463ZM119.061 36.763H103.565L104.422 34.6497H118.2L119.061 36.763Z" fill="#AB47BC"/>
<path d="M153.526 44.4477C153.376 44.4551 153.227 44.429 153.088 44.371C152.948 44.313 152.823 44.2245 152.72 44.1118C152.612 44.0008 152.527 43.8683 152.471 43.7222C152.415 43.5761 152.389 43.4197 152.394 43.2626V14.9982C152.39 14.682 152.507 14.3771 152.72 14.149C152.827 14.0429 152.953 13.9601 153.092 13.9058C153.23 13.8514 153.378 13.8267 153.526 13.833C153.677 13.8239 153.829 13.8473 153.971 13.9017C154.113 13.9561 154.243 14.0404 154.352 14.149C154.565 14.3771 154.682 14.682 154.678 14.9982V43.2033C154.683 43.3603 154.657 43.5168 154.601 43.6629C154.544 43.809 154.46 43.9418 154.352 44.0527C154.252 44.1789 154.126 44.2799 153.983 44.3483C153.84 44.4168 153.684 44.4508 153.526 44.4477Z" fill="#AB47BC"/>
<path d="M187.383 44.4474C187.23 44.4529 187.078 44.4259 186.936 44.3683C186.794 44.3107 186.665 44.2236 186.557 44.1125C186.449 44.0013 186.364 43.8684 186.308 43.7221C186.252 43.5758 186.226 43.4195 186.231 43.2623V14.9979C186.225 14.8417 186.252 14.6861 186.308 14.5408C186.364 14.3955 186.449 14.2637 186.557 14.154C186.665 14.0444 186.795 13.9594 186.937 13.904C187.079 13.8487 187.231 13.8243 187.383 13.8327C187.545 13.8268 187.705 13.8573 187.855 13.9221C188.004 13.9869 188.138 14.0844 188.246 14.2078L207.612 40.1415V14.9979C207.606 14.8408 207.632 14.6839 207.688 14.5376C207.744 14.3914 207.829 14.259 207.938 14.1487C208.045 14.0426 208.171 13.9598 208.31 13.9055C208.449 13.8511 208.596 13.8264 208.744 13.8327C209.043 13.8265 209.332 13.9399 209.551 14.1487C209.662 14.258 209.75 14.3898 209.81 14.536C209.869 14.6822 209.899 14.8395 209.896 14.9979V43.203C209.902 43.362 209.875 43.5204 209.815 43.6672C209.755 43.8139 209.665 43.9455 209.551 44.0524C209.446 44.1621 209.32 44.2483 209.182 44.3061C209.043 44.3638 208.894 44.3918 208.744 44.3881C208.579 44.3958 208.414 44.3621 208.265 44.2894C208.131 44.2342 208.012 44.146 207.919 44.0327L188.515 18.0793V43.203C188.52 43.3601 188.494 43.5165 188.438 43.6626C188.381 43.8087 188.297 43.9415 188.189 44.0524C188.091 44.1759 187.969 44.2754 187.829 44.3437C187.69 44.412 187.537 44.4475 187.383 44.4474Z" fill="#AB47BC"/>
<path d="M249.278 44.8405C247.786 44.8629 246.3 44.6293 244.883 44.1492C243.623 43.7287 242.456 43.0576 241.447 42.1741C240.488 41.3537 239.704 40.3383 239.144 39.1916C239.073 39.0512 239.036 38.8955 239.036 38.7374C239.036 38.5793 239.073 38.4235 239.144 38.2831C239.213 38.1367 239.312 38.0077 239.435 37.9053C239.557 37.8029 239.701 37.7294 239.854 37.6905C239.987 37.6318 240.131 37.6015 240.277 37.6015C240.422 37.6015 240.565 37.6318 240.699 37.6905C240.976 37.8243 241.204 38.0459 241.351 38.3227C241.81 39.1659 242.423 39.9102 243.156 40.515C243.943 41.1693 244.85 41.653 245.823 41.9371C246.95 42.2832 248.122 42.4497 249.297 42.4309C250.615 42.4729 251.925 42.2167 253.136 41.6803C254.147 41.2236 254.998 40.4584 255.573 39.4879C256.175 38.422 256.474 37.204 256.437 35.9721C256.445 35.1511 256.287 34.3376 255.973 33.5827C255.659 32.8279 255.196 32.1483 254.614 31.5873C253.065 30.2471 251.143 29.445 249.124 29.2961C246.671 29.0601 244.343 28.0691 242.445 26.452C241.684 25.7909 241.074 24.9645 240.659 24.0323C240.244 23.1001 240.035 22.0851 240.046 21.0599C240.035 19.6597 240.422 18.2867 241.159 17.1096C241.95 15.9274 243.047 14.9969 244.326 14.4235C245.812 13.7491 247.424 13.4185 249.047 13.4554C250.293 13.4398 251.531 13.6679 252.694 14.1271C253.758 14.5391 254.75 15.1261 255.631 15.8653C256.387 16.5014 257.036 17.2623 257.55 18.117C257.637 18.2521 257.694 18.4052 257.718 18.5657C257.741 18.7261 257.729 18.8898 257.684 19.0452C257.646 19.2049 257.567 19.3511 257.456 19.4691C257.345 19.5871 257.205 19.6725 257.051 19.7167C256.786 19.8255 256.491 19.8255 256.226 19.7167C255.942 19.6375 255.697 19.455 255.535 19.2032C255.142 18.6118 254.685 18.0686 254.172 17.5836C253.547 17.0323 252.832 16.5977 252.061 16.2998C251.09 15.9356 250.061 15.7614 249.028 15.7862C247.271 15.6877 245.533 16.2027 244.096 17.2478C243.502 17.737 243.03 18.3649 242.72 19.0795C242.409 19.794 242.269 20.5745 242.311 21.356C242.302 22.2701 242.564 23.1654 243.059 23.9238C243.659 24.7814 244.466 25.4625 245.401 25.8989C246.695 26.5056 248.064 26.9244 249.47 27.1433C252.085 27.4117 254.558 28.5011 256.552 30.2639C257.266 31.025 257.824 31.9261 258.194 32.9134C258.563 33.9008 258.735 34.9543 258.702 36.0116C258.716 37.2699 258.488 38.5185 258.03 39.6854C257.61 40.7549 256.953 41.7086 256.111 42.4704C255.252 43.253 254.246 43.8447 253.155 44.2085C251.907 44.646 250.596 44.8597 249.278 44.8405Z" fill="#AB47BC"/>
<path d="M295.956 44.4452C295.806 44.4527 295.657 44.4265 295.518 44.3685C295.379 44.3105 295.253 44.222 295.15 44.1093C295.044 44.0014 294.96 43.872 294.904 43.7293C294.848 43.5867 294.821 43.4338 294.824 43.2799V32.9893L284.306 15.6675C284.144 15.4099 284.07 15.104 284.095 14.7983C284.127 14.5329 284.249 14.2879 284.44 14.107C284.642 13.9244 284.902 13.8258 285.17 13.8305C285.35 13.823 285.529 13.8637 285.688 13.9489C285.843 14.0319 285.98 14.1462 286.091 14.2847L296.025 30.9563L305.783 14.4822C305.905 14.2428 306.083 14.0391 306.302 13.8898C306.475 13.7823 306.675 13.7274 306.877 13.7316C307.011 13.7252 307.144 13.7463 307.269 13.7938C307.394 13.8413 307.509 13.9142 307.607 14.0082C307.79 14.201 307.905 14.4513 307.933 14.7192C307.965 15.0193 307.89 15.3212 307.722 15.5686L297.204 32.8906V43.2008C297.211 43.3552 297.186 43.5092 297.13 43.6524C297.073 43.7957 296.988 43.9248 296.878 44.0305C296.771 44.1744 296.631 44.288 296.469 44.3606C296.308 44.4331 296.131 44.4622 295.956 44.4452Z" fill="#AB47BC"/>
<path d="M344.668 44.8405C343.175 44.8659 341.689 44.6322 340.273 44.1493C339.005 43.733 337.831 43.0616 336.818 42.1741C335.864 41.3483 335.081 40.3342 334.515 39.1916C334.448 39.0499 334.414 38.8947 334.414 38.7374C334.414 38.5801 334.448 38.4249 334.515 38.2832C334.588 38.1361 334.691 38.0071 334.816 37.9049C334.942 37.8026 335.088 37.7294 335.244 37.6905C335.374 37.6323 335.515 37.6025 335.657 37.6025C335.799 37.6025 335.939 37.6323 336.069 37.6905C336.354 37.8123 336.587 38.0372 336.722 38.3227C337.691 40.0874 339.298 41.3865 341.194 41.9371C342.327 42.2853 343.505 42.4518 344.687 42.4309C345.972 42.4592 347.249 42.2033 348.43 41.6803C349.444 41.2292 350.297 40.4626 350.867 39.488C351.469 38.4221 351.768 37.2041 351.731 35.9722C351.748 35.1516 351.597 34.3367 351.286 33.5809C350.975 32.825 350.511 32.1455 349.927 31.5874C348.372 30.2432 346.443 29.441 344.418 29.2962C341.967 29.0518 339.641 28.0618 337.739 26.4521C336.977 25.7909 336.367 24.9645 335.953 24.0323C335.538 23.1001 335.329 22.0852 335.34 21.06C335.327 19.6566 335.721 18.2811 336.472 17.1097C337.254 15.9185 338.354 14.9856 339.639 14.4235C341.118 13.7489 342.724 13.4182 344.342 13.4555C345.594 13.4402 346.837 13.6682 348.007 14.1272C349.067 14.5346 350.054 15.1221 350.925 15.8653C351.691 16.4908 352.341 17.2536 352.844 18.117C352.934 18.2506 352.995 18.4028 353.022 18.5633C353.048 18.7238 353.04 18.8885 352.998 19.0453C352.953 19.2016 352.871 19.3442 352.761 19.4612C352.651 19.5782 352.515 19.6659 352.364 19.7168C352.093 19.8249 351.792 19.8249 351.52 19.7168C351.241 19.6273 350.999 19.447 350.829 19.2032C350.441 18.6073 349.984 18.0634 349.466 17.5837C348.851 17.0281 348.141 16.593 347.374 16.2998C346.396 15.9372 345.362 15.7631 344.322 15.7862C342.57 15.6812 340.836 16.197 339.409 17.2478C338.809 17.7328 338.332 18.3595 338.018 19.0747C337.704 19.7899 337.562 20.5724 337.605 21.356C337.597 22.2701 337.857 23.1654 338.353 23.9238C338.958 24.7765 339.764 25.4564 340.695 25.899C341.996 26.5029 343.372 26.9215 344.783 27.1433C347.393 27.4107 349.86 28.5004 351.846 30.264C352.56 31.0251 353.118 31.9262 353.487 32.9135C353.857 33.9008 354.03 34.9543 353.996 36.0117C354.016 37.2686 353.794 38.5172 353.343 39.6854C352.921 40.7538 352.264 41.7072 351.424 42.4704C350.568 43.2573 349.561 43.8496 348.468 44.2086C347.245 44.6402 345.96 44.8538 344.668 44.8405Z" fill="#AB47BC"/>
<path d="M99.8181 66.1911H98.5825L102.156 56.1898H103.373L106.947 66.1911H105.711L102.803 57.7721H102.727L99.8181 66.1911ZM100.274 62.2843H105.255V63.3587H100.274V62.2843Z" fill="#AB47BC"/>
<path d="M109.399 56.1898H110.806L114.114 64.4916H114.228L117.535 56.1898H118.942V66.1911H117.839V58.5925H117.744L114.703 66.1911H113.638L110.597 58.5925H110.502V66.1911H109.399V56.1898Z" fill="#AB47BC"/>
<path d="M122.641 66.1911H121.405L124.979 56.1898H126.196L129.769 66.1911H128.534L125.625 57.7721H125.549L122.641 66.1911ZM123.097 62.2843H128.078V63.3587H123.097V62.2843Z" fill="#AB47BC"/>
<path d="M131.899 66.1911V65.3121L137.145 57.2642H131.842V56.1898H138.552V57.0689L133.306 65.1167H138.609V66.1911H131.899Z" fill="#AB47BC"/>
<path d="M142.701 56.1898V66.1911H141.523V56.1898H142.701Z" fill="#AB47BC"/>
<path d="M153.719 56.1898V66.1911H152.578L147.275 58.3385H147.18V66.1911H146.001V56.1898H147.142L152.464 64.0619H152.559V56.1898H153.719Z" fill="#AB47BC"/>
<path d="M163.667 59.3152C163.563 58.9864 163.425 58.6918 163.254 58.4313C163.086 58.1676 162.885 57.943 162.65 57.7574C162.419 57.5718 162.156 57.4302 161.861 57.3326C161.567 57.2349 161.244 57.1861 160.892 57.1861C160.315 57.1861 159.791 57.3391 159.319 57.6451C158.847 57.9511 158.471 58.402 158.193 58.9978C157.914 59.5936 157.774 60.3245 157.774 61.1905C157.774 62.0565 157.915 62.7873 158.197 63.3831C158.479 63.9789 158.861 64.4298 159.343 64.7358C159.824 65.0418 160.366 65.1949 160.968 65.1949C161.526 65.1949 162.017 65.0728 162.441 64.8286C162.869 64.5812 163.202 64.2328 163.439 63.7836C163.68 63.331 163.8 62.7987 163.8 62.1867L164.162 62.2648H161.234V61.1905H164.941V62.2648C164.941 63.0885 164.77 63.8047 164.428 64.4135C164.089 65.0223 163.62 65.4944 163.021 65.8297C162.425 66.1618 161.741 66.3278 160.968 66.3278C160.106 66.3278 159.349 66.1195 158.696 65.7027C158.047 65.286 157.54 64.6935 157.176 63.9252C156.815 63.1568 156.634 62.2453 156.634 61.1905C156.634 60.3993 156.737 59.688 156.943 59.0564C157.152 58.4216 157.447 57.8811 157.827 57.4351C158.207 56.9891 158.657 56.6473 159.176 56.4096C159.696 56.1719 160.268 56.0531 160.892 56.0531C161.405 56.0531 161.884 56.1329 162.327 56.2924C162.774 56.4487 163.171 56.6717 163.52 56.9614C163.872 57.2479 164.165 57.5914 164.399 57.9918C164.634 58.389 164.795 58.8301 164.884 59.3152H163.667Z" fill="#AB47BC"/>
<path d="M167.896 66.1911V56.1898H169.075V65.1167H173.599V66.1911H167.896Z" fill="#AB47BC"/>
<path d="M175.067 56.1898H176.416L179.116 60.8584H179.23L181.929 56.1898H183.279L179.762 62.0695V66.1911H178.583V62.0695L175.067 56.1898Z" fill="#AB47BC"/>
<path d="M191.619 56.1898V66.1911H190.44V56.1898H191.619Z" fill="#AB47BC"/>
<path d="M202.637 56.1898V66.1911H201.496L196.192 58.3385H196.097V66.1911H194.919V56.1898H196.059L201.382 64.0619H201.477V56.1898H202.637Z" fill="#AB47BC"/>
<path d="M205.399 57.2642V56.1898H212.699V57.2642H209.638V66.1911H208.46V57.2642H205.399Z" fill="#AB47BC"/>
<path d="M215.455 66.1911V56.1898H221.328V57.2642H216.633V60.6435H221.024V61.7179H216.633V65.1167H221.404V66.1911H215.455Z" fill="#AB47BC"/>
<path d="M231.043 59.3152C230.938 58.9864 230.8 58.6918 230.629 58.4313C230.461 58.1676 230.26 57.943 230.026 57.7574C229.794 57.5718 229.531 57.4302 229.237 57.3326C228.942 57.2349 228.619 57.1861 228.267 57.1861C227.691 57.1861 227.166 57.3391 226.694 57.6451C226.222 57.9511 225.847 58.402 225.568 58.9978C225.289 59.5936 225.15 60.3245 225.15 61.1905C225.15 62.0565 225.291 62.7873 225.573 63.3831C225.855 63.9789 226.236 64.4298 226.718 64.7358C227.2 65.0418 227.741 65.1949 228.343 65.1949C228.901 65.1949 229.392 65.0728 229.817 64.8286C230.244 64.5812 230.577 64.2328 230.815 63.7836C231.055 63.331 231.176 62.7987 231.176 62.1867L231.537 62.2648H228.609V61.1905H232.316V62.2648C232.316 63.0885 232.145 63.8047 231.803 64.4135C231.464 65.0223 230.995 65.4944 230.396 65.8297C229.801 66.1618 229.116 66.3278 228.343 66.3278C227.482 66.3278 226.724 66.1195 226.072 65.7027C225.422 65.286 224.915 64.6935 224.551 63.9252C224.19 63.1568 224.009 62.2453 224.009 61.1905C224.009 60.3993 224.112 59.688 224.318 59.0564C224.527 58.4216 224.822 57.8811 225.202 57.4351C225.582 56.9891 226.032 56.6473 226.552 56.4096C227.071 56.1719 227.643 56.0531 228.267 56.0531C228.781 56.0531 229.259 56.1329 229.702 56.2924C230.149 56.4487 230.547 56.6717 230.895 56.9614C231.247 57.2479 231.54 57.5914 231.774 57.9918C232.009 58.389 232.171 58.8301 232.259 59.3152H231.043Z" fill="#AB47BC"/>
<path d="M235.272 66.1911V56.1898H238.56C239.32 56.1898 239.945 56.3233 240.433 56.5903C240.92 56.854 241.282 57.217 241.516 57.6793C241.75 58.1416 241.868 58.6674 241.868 59.2566C241.868 59.8459 241.75 60.3684 241.516 60.8242C241.282 61.28 240.922 61.6381 240.437 61.8986C239.953 62.1557 239.333 62.2843 238.579 62.2843H235.918V61.1905H238.541C239.061 61.1905 239.479 61.1123 239.796 60.9561C240.116 60.7998 240.347 60.5784 240.49 60.2919C240.635 60.0022 240.708 59.6571 240.708 59.2566C240.708 58.8562 240.635 58.5062 240.49 58.2067C240.344 57.9072 240.111 57.676 239.791 57.5132C239.471 57.3472 239.048 57.2642 238.522 57.2642H236.45V66.1911H235.272ZM239.853 61.6983L242.248 66.1911H240.879L238.522 61.6983H239.853Z" fill="#AB47BC"/>
<path d="M245.168 66.1911H243.932L247.506 56.1898H248.722L252.296 66.1911H251.06L248.152 57.7721H248.076L245.168 66.1911ZM245.624 62.2843H250.604V63.3587H245.624V62.2843Z" fill="#AB47BC"/>
<path d="M253.079 57.2642V56.1898H260.379V57.2642H257.319V66.1911H256.14V57.2642H253.079Z" fill="#AB47BC"/>
<path d="M263.135 66.1911V56.1898H269.009V57.2642H264.313V60.6435H268.704V61.7179H264.313V65.1167H269.085V66.1911H263.135Z" fill="#AB47BC"/>
<path d="M275.073 66.1911H272.07V56.1898H275.206C276.15 56.1898 276.958 56.3901 277.63 56.7905C278.301 57.1877 278.816 57.759 279.174 58.5046C279.532 59.2469 279.711 60.1356 279.711 61.1709C279.711 62.2127 279.531 63.1096 279.169 63.8617C278.808 64.6105 278.282 65.1867 277.592 65.5904C276.901 65.9909 276.062 66.1911 275.073 66.1911ZM273.248 65.1167H274.997C275.802 65.1167 276.469 64.9572 276.998 64.6382C277.527 64.3191 277.921 63.8649 278.181 63.2757C278.441 62.6864 278.571 61.9848 278.571 61.1709C278.571 60.3635 278.442 59.6685 278.186 59.0857C277.929 58.4997 277.546 58.0504 277.036 57.7379C276.526 57.4221 275.89 57.2642 275.13 57.2642H273.248V65.1167Z" fill="#AB47BC"/>
<path d="M292.648 58.6901C292.591 58.1953 292.36 57.8111 291.954 57.5377C291.549 57.2642 291.051 57.1275 290.462 57.1275C290.031 57.1275 289.654 57.1991 289.331 57.3423C289.011 57.4856 288.761 57.6825 288.58 57.9332C288.403 58.1839 288.314 58.4688 288.314 58.7878C288.314 59.0548 288.376 59.2843 288.499 59.4764C288.626 59.6652 288.788 59.8231 288.984 59.9501C289.181 60.0738 289.386 60.1763 289.602 60.2577C289.817 60.3359 290.015 60.3993 290.196 60.4482L291.184 60.7216C291.438 60.79 291.72 60.8844 292.03 61.0049C292.344 61.1253 292.643 61.2898 292.928 61.4981C293.217 61.7032 293.454 61.9669 293.641 62.2892C293.828 62.6115 293.922 63.0071 293.922 63.4759C293.922 64.0163 293.784 64.5047 293.508 64.9409C293.236 65.3772 292.837 65.7239 292.311 65.9811C291.788 66.2383 291.153 66.3669 290.405 66.3669C289.708 66.3669 289.104 66.2513 288.594 66.0202C288.087 65.789 287.688 65.4667 287.397 65.0532C287.109 64.6398 286.945 64.1596 286.907 63.6126H288.124C288.156 63.9903 288.279 64.3028 288.495 64.5502C288.713 64.7944 288.989 64.9767 289.322 65.0972C289.657 65.2144 290.019 65.273 290.405 65.273C290.855 65.273 291.259 65.1981 291.617 65.0484C291.975 64.8953 292.258 64.6837 292.468 64.4135C292.677 64.14 292.781 63.821 292.781 63.4564C292.781 63.1243 292.691 62.8541 292.51 62.6457C292.33 62.4374 292.092 62.2681 291.797 62.1378C291.503 62.0076 291.184 61.8937 290.842 61.796L289.645 61.4444C288.884 61.2198 288.282 60.8991 287.839 60.4824C287.395 60.0656 287.173 59.5203 287.173 58.8464C287.173 58.2865 287.321 57.7981 287.615 57.3814C287.913 56.9614 288.312 56.6359 288.813 56.4047C289.317 56.1703 289.879 56.0531 290.5 56.0531C291.127 56.0531 291.685 56.1687 292.173 56.3998C292.661 56.6277 293.047 56.9403 293.332 57.3374C293.621 57.7346 293.773 58.1855 293.789 58.6901H292.648Z" fill="#AB47BC"/>
<path d="M295.96 56.1898H297.309L300.009 60.8584H300.123L302.822 56.1898H304.172L300.655 62.0695V66.1911H299.477V62.0695L295.96 56.1898Z" fill="#AB47BC"/>
<path d="M311.955 58.6901C311.898 58.1953 311.667 57.8111 311.262 57.5377C310.856 57.2642 310.359 57.1275 309.769 57.1275C309.338 57.1275 308.961 57.1991 308.638 57.3423C308.318 57.4856 308.068 57.6825 307.887 57.9332C307.71 58.1839 307.621 58.4688 307.621 58.7878C307.621 59.0548 307.683 59.2843 307.807 59.4764C307.933 59.6652 308.095 59.8231 308.291 59.9501C308.488 60.0738 308.694 60.1763 308.909 60.2577C309.125 60.3359 309.323 60.3993 309.503 60.4482L310.492 60.7216C310.745 60.79 311.027 60.8844 311.338 61.0049C311.651 61.1253 311.951 61.2898 312.236 61.4981C312.524 61.7032 312.762 61.9669 312.949 62.2892C313.136 62.6115 313.229 63.0071 313.229 63.4759C313.229 64.0163 313.091 64.5047 312.816 64.9409C312.543 65.3772 312.144 65.7239 311.618 65.9811C311.095 66.2383 310.46 66.3669 309.712 66.3669C309.015 66.3669 308.412 66.2513 307.902 66.0202C307.395 65.789 306.996 65.4667 306.704 65.0532C306.416 64.6398 306.253 64.1596 306.215 63.6126H307.431C307.463 63.9903 307.586 64.3028 307.802 64.5502C308.021 64.7944 308.296 64.9767 308.629 65.0972C308.965 65.2144 309.326 65.273 309.712 65.273C310.162 65.273 310.566 65.1981 310.924 65.0484C311.282 64.8953 311.566 64.6837 311.775 64.4135C311.984 64.14 312.088 63.821 312.088 63.4564C312.088 63.1243 311.998 62.8541 311.818 62.6457C311.637 62.4374 311.399 62.2681 311.105 62.1378C310.81 62.0076 310.492 61.8937 310.15 61.796L308.952 61.4444C308.192 61.2198 307.59 60.8991 307.146 60.4824C306.703 60.0656 306.481 59.5203 306.481 58.8464C306.481 58.2865 306.628 57.7981 306.923 57.3814C307.221 56.9614 307.62 56.6359 308.12 56.4047C308.624 56.1703 309.186 56.0531 309.807 56.0531C310.435 56.0531 310.992 56.1687 311.48 56.3998C311.968 56.6277 312.355 56.9403 312.64 57.3374C312.928 57.7346 313.08 58.1855 313.096 58.6901H311.955Z" fill="#AB47BC"/>
<path d="M315.571 57.2642V56.1898H322.871V57.2642H319.81V66.1911H318.632V57.2642H315.571Z" fill="#AB47BC"/>
<path d="M325.627 66.1911V56.1898H331.5V57.2642H326.805V60.6435H331.196V61.7179H326.805V65.1167H331.576V66.1911H325.627Z" fill="#AB47BC"/>
<path d="M334.561 56.1898H335.968L339.276 64.4916H339.39L342.697 56.1898H344.104V66.1911H343.001V58.5925H342.906L339.865 66.1911H338.8L335.759 58.5925H335.664V66.1911H334.561V56.1898Z" fill="#AB47BC"/>
<path d="M352.726 58.6901C352.669 58.1953 352.438 57.8111 352.033 57.5377C351.627 57.2642 351.13 57.1275 350.54 57.1275C350.109 57.1275 349.732 57.1991 349.409 57.3423C349.089 57.4856 348.839 57.6825 348.658 57.9332C348.481 58.1839 348.392 58.4688 348.392 58.7878C348.392 59.0548 348.454 59.2843 348.578 59.4764C348.704 59.6652 348.866 59.8231 349.062 59.9501C349.259 60.0738 349.465 60.1763 349.68 60.2577C349.896 60.3359 350.094 60.3993 350.274 60.4482L351.263 60.7216C351.516 60.79 351.798 60.8844 352.109 61.0049C352.422 61.1253 352.722 61.2898 353.007 61.4981C353.295 61.7032 353.533 61.9669 353.72 62.2892C353.906 62.6115 354 63.0071 354 63.4759C354 64.0163 353.862 64.5047 353.587 64.9409C353.314 65.3772 352.915 65.7239 352.389 65.9811C351.866 66.2383 351.231 66.3669 350.483 66.3669C349.786 66.3669 349.183 66.2513 348.673 66.0202C348.166 65.789 347.767 65.4667 347.475 65.0532C347.187 64.6398 347.024 64.1596 346.986 63.6126H348.202C348.234 63.9903 348.357 64.3028 348.573 64.5502C348.791 64.7944 349.067 64.9767 349.4 65.0972C349.736 65.2144 350.097 65.273 350.483 65.273C350.933 65.273 351.337 65.1981 351.695 65.0484C352.053 64.8953 352.337 64.6837 352.546 64.4135C352.755 64.14 352.859 63.821 352.859 63.4564C352.859 63.1243 352.769 62.8541 352.589 62.6457C352.408 62.4374 352.17 62.2681 351.876 62.1378C351.581 62.0076 351.263 61.8937 350.92 61.796L349.723 61.4444C348.963 61.2198 348.361 60.8991 347.917 60.4824C347.473 60.0656 347.252 59.5203 347.252 58.8464C347.252 58.2865 347.399 57.7981 347.694 57.3814C347.991 56.9614 348.391 56.6359 348.891 56.4047C349.395 56.1703 349.957 56.0531 350.578 56.0531C351.206 56.0531 351.763 56.1687 352.251 56.3998C352.739 56.6277 353.126 56.9403 353.411 57.3374C353.699 57.7346 353.851 58.1855 353.867 58.6901H352.726Z" fill="#AB47BC"/>
</svg>
