<svg width="307" height="70" viewBox="0 0 307 70" fill="none" xmlns="http://www.w3.org/2000/svg">
<path fill-rule="evenodd" clip-rule="evenodd" d="M34.9528 1.90422C30.1459 1.7569 25.3761 2.78477 21.0614 4.89788L21.0513 4.90279C15.4383 7.57056 10.6774 11.7327 7.29703 16.9277C3.91865 22.1196 2.05075 28.1404 1.90022 34.3232V36.4055C2.22132 45.0939 5.98518 53.3031 12.3702 59.2405C18.7593 65.1818 27.2532 68.3648 35.9948 68.0936C44.7364 67.8224 53.0142 64.1191 59.0188 57.7933C65.0234 51.4674 68.2663 43.0339 68.0378 34.3365L68.0372 34.3118C68.0372 24.3346 63.3265 16.384 56.8117 10.8369C50.2807 5.27596 41.9844 2.17516 34.9528 1.90422ZM20.2272 3.19943C24.8206 0.950855 29.8982 -0.142562 35.0152 0.0148879L35.0225 0.0151117C42.5042 0.302377 51.207 3.57641 58.0473 9.40073C64.9023 15.2375 69.9339 23.6802 69.9377 34.2996C70.1759 43.4922 66.7469 52.405 60.4004 59.0911C54.051 65.7803 45.2977 69.6963 36.0541 69.9831C26.8104 70.2699 17.8287 66.904 11.0726 60.6215C4.31647 54.3389 0.335641 45.651 0.000623597 36.4569L0 36.4398V34.2892C0.156926 27.7535 2.13071 21.3886 5.70185 15.9005C9.27199 10.4139 14.2996 6.0178 20.2272 3.19943Z" fill="#AB47BC"/>
<path fill-rule="evenodd" clip-rule="evenodd" d="M48.7396 17.8595C45.9703 11.5092 41.8323 5.84149 36.6185 1.25725L37.0557 0.765239C42.342 5.41335 46.5377 11.16 49.3455 17.5989C53.0452 26.1708 54.0459 35.6585 52.2144 44.8074C50.383 53.9564 45.8061 62.3379 39.0877 68.8459L38.6273 68.3755C45.25 61.9601 49.7617 53.698 51.5671 44.6792C53.3724 35.6606 52.3866 26.3092 48.7396 17.8595Z" fill="#AB47BC"/>
<path fill-rule="evenodd" clip-rule="evenodd" d="M13.8366 21.2369C15.5171 13.8792 19.3764 7.19165 24.916 2.03793L25.3669 2.51753C19.9251 7.58022 16.1336 14.1492 14.4816 21.3766C13.6231 25.8789 13.5492 30.4946 14.2636 35.0218L14.265 35.0305C14.937 40.1936 16.3988 45.224 18.5998 49.9474C20.8244 54.7621 22.8865 59.2056 27.6071 63.0698C30.6169 65.4636 34.0807 67.229 37.7919 68.2606L37.6143 68.8931C33.8168 67.8375 30.2727 66.0309 27.1932 63.5814L27.1896 63.5785C22.3378 59.6076 20.2233 55.0334 18.0008 50.2233C15.7722 45.4406 14.2917 40.3471 13.6108 35.1193C12.8851 30.5171 12.9608 25.8251 13.8342 21.2484L13.8366 21.2369Z" fill="#AB47BC"/>
<path fill-rule="evenodd" clip-rule="evenodd" d="M25.9422 38.2452C21.7299 27.2911 19.9207 15.5676 20.6361 3.86094L21.295 3.90079C20.5853 15.514 22.38 27.1439 26.5587 38.0106C30.7374 48.8773 37.2031 58.7296 45.523 66.9066L45.059 67.3738C36.6723 59.1309 30.1545 49.1994 25.9422 38.2452Z" fill="#AB47BC"/>
<path fill-rule="evenodd" clip-rule="evenodd" d="M46.9924 13.369C37.4086 7.99376 26.2827 5.99077 15.413 7.6839L15.3109 7.03515C26.3282 5.31903 37.6052 7.34952 47.3189 12.7983L47.3236 12.8009C57.8748 18.9456 65.6699 28.8656 69.1171 40.5348L68.4838 40.72C65.0843 29.2122 57.3972 19.4292 46.9924 13.369Z" fill="#AB47BC"/>
<path fill-rule="evenodd" clip-rule="evenodd" d="M7.94455 25.7508C7.01113 33.6713 7.53235 43.2946 12.755 51.5983C15.6679 56.1212 19.495 59.9915 23.993 62.9632C28.9062 65.9569 34.4938 67.6809 40.2477 67.9783L40.2134 68.6341C34.3476 68.3308 28.6514 66.5728 23.643 63.52L23.6328 63.5138C19.0557 60.4908 15.1617 56.5529 12.1981 51.9509L12.1963 51.9479C6.86096 43.4661 6.34673 33.6697 7.28897 25.6744C8.23165 17.6753 10.6368 11.439 11.1839 10.0444L11.7988 10.2831C11.2594 11.658 8.87758 17.8337 7.94455 25.7508Z" fill="#AB47BC"/>
<path fill-rule="evenodd" clip-rule="evenodd" d="M16.6567 38.4606C11.5742 32.5716 7.57276 25.8392 4.8349 18.5711L5.453 18.3406C8.16383 25.537 12.1258 32.2029 17.1582 38.0337L17.1596 38.0354C24.1859 46.2866 33.0945 52.7459 43.1415 56.8743C47.5641 58.6683 52.161 60.003 56.8593 60.8573L56.7406 61.5033C51.9973 60.6408 47.3565 59.2932 42.8916 57.4821C32.7474 53.3138 23.751 46.7915 16.6567 38.4606Z" fill="#AB47BC"/>
<path fill-rule="evenodd" clip-rule="evenodd" d="M37.4877 22.0837C26.2951 19.3775 14.6135 19.3775 3.42091 22.0837L3.26501 21.4457C14.5596 18.7148 26.3476 18.7147 37.6421 21.4453C49.452 24.1903 60.3282 29.9777 69.1788 38.2266L68.7275 38.7058C59.9611 30.5354 49.1882 24.8031 37.4905 22.0844L37.4877 22.0837Z" fill="#AB47BC"/>
<path fill-rule="evenodd" clip-rule="evenodd" d="M57.8422 10.7831C55.4488 9.96467 35.7767 3.23792 19.176 14.154L19.1723 14.1564C17.1476 15.4489 6.6557 22.3789 3.69867 35.3825C2.79319 39.3028 2.67315 43.3633 3.34578 47.3298L2.6949 47.439C2.00788 43.3877 2.13019 39.2413 3.05498 35.237C6.07253 21.9685 16.7599 14.9162 18.8139 13.6049C35.6913 2.50845 55.6366 9.33389 58.0502 10.1598C58.0853 10.1718 58.1167 10.1826 58.1443 10.192L57.9306 10.8133C57.9044 10.8044 57.8749 10.7943 57.8422 10.7831Z" fill="#AB47BC"/>
<path fill-rule="evenodd" clip-rule="evenodd" d="M42.8349 6.34631C37.2786 5.02116 31.5063 4.85799 25.8833 5.86717C20.2595 6.87651 14.9077 9.03658 10.1667 12.2106L9.79814 11.6658C14.615 8.44106 20.0523 6.24644 25.7661 5.22095C31.4799 4.19547 37.3455 4.36147 42.9915 5.7084L42.9967 5.70966C48.3091 7.06916 53.281 9.50786 57.5997 12.8722C61.9185 16.2366 65.4905 20.4538 68.0909 25.2585L67.5097 25.5698C64.9525 20.8449 61.4398 16.6977 57.1928 13.3892C52.9464 10.0813 48.0581 7.68336 42.8349 6.34631Z" fill="#AB47BC"/>
<path fill-rule="evenodd" clip-rule="evenodd" d="M52.0933 46.2094C58.8035 36.0354 61.2924 23.6718 59.0385 11.7117L59.6873 11.5908C61.9726 23.7176 59.449 36.2537 52.6452 46.5697C45.8414 56.8856 35.2863 64.1798 23.194 66.9223L23.0473 66.2821C34.9733 63.5773 45.3831 56.3834 52.0933 46.2094Z" fill="#AB47BC"/>
<path fill-rule="evenodd" clip-rule="evenodd" d="M61.0399 13.0531C61.7073 14.5683 69.2607 32.2917 58.4874 49.2285C46.9829 67.3664 25.3828 67.3663 24.259 67.3663L24.2575 66.7097C25.3579 66.7097 46.6238 66.702 57.9292 48.8781C68.5106 32.2433 61.092 14.8074 60.4353 13.3167L61.0399 13.0531Z" fill="#AB47BC"/>
<path fill-rule="evenodd" clip-rule="evenodd" d="M40.995 32.1237C35.2941 21.769 27.5653 12.6556 18.2647 5.32207L18.6747 4.80746C28.0444 12.1955 35.8308 21.3767 41.574 31.8084C47.142 41.9329 50.6509 53.0494 51.8999 64.5229L51.2436 64.5936C50.004 53.2058 46.5214 42.1726 40.995 32.1237Z" fill="#AB47BC"/>
<path fill-rule="evenodd" clip-rule="evenodd" d="M68.8797 41.4906C68.2014 43.3787 62.1026 60.3549 42.8403 65.0791C32.6447 67.5764 23.852 65.2307 17.5384 62.1871C11.2282 59.1451 7.37841 55.3989 7.04642 55.0597L7.51934 54.6016C7.81544 54.9041 11.6045 58.5968 17.8263 61.5962C24.0447 64.5939 32.6772 66.8922 42.6824 64.4415C61.5942 59.8032 67.5882 43.1327 68.2611 41.2614C68.28 41.2088 68.2947 41.1679 68.3054 41.1393L68.9242 41.3677C68.9135 41.3963 68.8988 41.4375 68.8797 41.4906Z" fill="#AB47BC"/>
<path fill-rule="evenodd" clip-rule="evenodd" d="M13.7072 55.341C8.95547 52.101 4.89964 47.9522 1.77642 43.1367L2.33107 42.7807C5.40678 47.523 9.40092 51.6086 14.0804 54.7993C18.7589 57.9894 24.0292 60.221 29.5835 61.3642C35.3692 62.419 41.3102 62.2899 47.0441 60.9849C52.7793 59.6796 58.1866 57.2251 62.9364 53.7715L63.3259 54.3016C58.5037 57.8079 53.0139 60.2998 47.1913 61.625C41.3687 62.9502 35.3358 63.081 29.4607 62.0094L29.4534 62.0081C23.8119 60.8475 18.459 58.581 13.7072 55.341Z" fill="#AB47BC"/>
<path fill-rule="evenodd" clip-rule="evenodd" d="M64.1867 18.124C53.6477 12.8 41.5675 11.3145 30.0426 13.9256C18.5177 16.5368 8.27521 23.0795 1.09307 32.4184L0.568823 32.0194C7.84466 22.5586 18.2207 15.9306 29.896 13.2854C41.5713 10.6402 53.8091 12.145 64.4856 17.5385L64.1867 18.124Z" fill="#AB47BC"/>
<path d="M86.4873 38.5454C86.3092 38.5602 86.1308 38.5211 85.9741 38.4329C85.8173 38.3446 85.6894 38.2109 85.6055 38.0486C85.5324 37.8999 85.4941 37.7357 85.4941 37.5691C85.4941 37.4025 85.5324 37.2381 85.6055 37.0894L95.5924 12.6976C95.6573 12.4886 95.7864 12.3068 95.9605 12.1801C96.1347 12.0534 96.3443 11.9886 96.5575 11.9953C96.7673 11.995 96.9719 12.0626 97.1422 12.1887C97.3125 12.3147 97.4399 12.4929 97.5063 12.6976L107.493 37.0894C107.582 37.236 107.629 37.4049 107.629 37.5775C107.629 37.75 107.582 37.9192 107.493 38.0657C107.405 38.2194 107.278 38.3454 107.125 38.4299C106.973 38.5145 106.801 38.5544 106.628 38.5454C106.434 38.552 106.242 38.4983 106.078 38.3913C105.919 38.2655 105.793 38.1005 105.712 37.9116L95.9918 14.0678H97.0402L87.3695 37.9116C87.2994 38.107 87.1713 38.2749 87.0034 38.3913C86.847 38.4872 86.6693 38.5402 86.4873 38.5454ZM104.231 31.8821H88.9344L89.7334 30.0494H103.465L104.231 31.8821Z" fill="#AB47BC"/>
<path d="M133.143 38.5465C133.013 38.553 132.883 38.5303 132.763 38.48C132.642 38.4298 132.533 38.353 132.444 38.2553C132.35 38.159 132.277 38.0441 132.228 37.9174C132.18 37.7907 132.157 37.655 132.161 37.5188V13.007C132.158 12.7328 132.259 12.4684 132.444 12.2706C132.536 12.1785 132.646 12.1067 132.766 12.0596C132.886 12.0125 133.015 11.991 133.143 11.9964C133.274 11.9886 133.406 12.0089 133.529 12.056C133.652 12.1032 133.765 12.1764 133.859 12.2706C134.044 12.4684 134.145 12.7328 134.142 13.007V37.4674C134.146 37.6036 134.123 37.7392 134.075 37.8659C134.026 37.9926 133.953 38.1078 133.859 38.204C133.773 38.3134 133.664 38.401 133.54 38.4604C133.416 38.5198 133.28 38.5492 133.143 38.5465Z" fill="#AB47BC"/>
<path d="M162.505 38.5463C162.372 38.5511 162.24 38.5276 162.117 38.4777C161.994 38.4277 161.882 38.3522 161.788 38.2558C161.695 38.1594 161.621 38.0442 161.572 37.9173C161.524 37.7905 161.501 37.6548 161.506 37.5186V13.0067C161.501 12.8712 161.524 12.7363 161.572 12.6103C161.621 12.4843 161.695 12.37 161.789 12.2749C161.883 12.1798 161.995 12.1061 162.118 12.0581C162.241 12.0101 162.373 11.989 162.505 11.9962C162.645 11.9911 162.784 12.0176 162.914 12.0738C163.043 12.13 163.159 12.2145 163.254 12.3215L180.048 34.812V13.0067C180.043 12.8704 180.065 12.7344 180.114 12.6076C180.162 12.4807 180.237 12.3659 180.331 12.2703C180.424 12.1783 180.533 12.1064 180.653 12.0593C180.774 12.0122 180.902 11.9907 181.03 11.9962C181.289 11.9909 181.54 12.0892 181.729 12.2703C181.826 12.3651 181.903 12.4793 181.954 12.6061C182.006 12.7329 182.031 12.8693 182.029 13.0067V37.4671C182.034 37.605 182.01 37.7424 181.959 37.8696C181.907 37.9969 181.829 38.1111 181.729 38.2038C181.638 38.2989 181.529 38.3737 181.409 38.4237C181.289 38.4738 181.16 38.4981 181.03 38.4948C180.887 38.5016 180.744 38.4723 180.614 38.4093C180.498 38.3614 180.395 38.2849 180.314 38.1866L163.486 15.679V37.4671C163.491 37.6033 163.468 37.739 163.419 37.8657C163.371 37.9924 163.297 38.1075 163.204 38.2038C163.119 38.3109 163.013 38.3971 162.892 38.4564C162.771 38.5156 162.639 38.5464 162.505 38.5463Z" fill="#AB47BC"/>
<path d="M216.182 38.8872C214.888 38.9066 213.6 38.704 212.37 38.2877C211.278 37.923 210.266 37.341 209.391 36.5748C208.559 35.8633 207.879 34.9828 207.394 33.9883C207.332 33.8666 207.3 33.7315 207.3 33.5944C207.3 33.4572 207.332 33.3222 207.394 33.2004C207.453 33.0734 207.539 32.9616 207.646 32.8728C207.752 32.784 207.876 32.7203 208.009 32.6865C208.125 32.6356 208.25 32.6093 208.376 32.6093C208.502 32.6093 208.626 32.6356 208.742 32.6865C208.982 32.8026 209.18 32.9947 209.308 33.2347C209.706 33.966 210.237 34.6115 210.873 35.136C211.555 35.7034 212.342 36.1229 213.186 36.3693C214.163 36.6695 215.179 36.8139 216.199 36.7975C217.341 36.834 218.478 36.6118 219.528 36.1466C220.405 35.7505 221.143 35.0869 221.642 34.2453C222.163 33.3209 222.423 32.2646 222.391 31.1962C222.397 30.4843 222.261 29.7787 221.988 29.1241C221.716 28.4695 221.315 27.8802 220.809 27.3936C219.466 26.2313 217.8 25.5358 216.049 25.4066C213.921 25.2019 211.903 24.3425 210.257 22.9401C209.596 22.3668 209.067 21.6501 208.707 20.8416C208.348 20.0332 208.166 19.153 208.176 18.2639C208.167 17.0496 208.502 15.8589 209.141 14.8381C209.827 13.8128 210.779 13.0058 211.888 12.5086C213.176 11.9237 214.574 11.637 215.982 11.669C217.063 11.6555 218.136 11.8533 219.145 12.2516C220.068 12.6089 220.928 13.1179 221.692 13.759C222.348 14.3106 222.91 14.9705 223.356 15.7117C223.432 15.8289 223.481 15.9617 223.501 16.1008C223.521 16.2399 223.512 16.3819 223.472 16.5167C223.439 16.6551 223.371 16.782 223.274 16.8843C223.178 16.9866 223.057 17.0607 222.923 17.099C222.694 17.1934 222.437 17.1934 222.207 17.099C221.962 17.0304 221.749 16.872 221.608 16.6537C221.268 16.1408 220.871 15.6697 220.427 15.2492C219.884 14.771 219.264 14.3942 218.596 14.1357C217.754 13.8199 216.862 13.6689 215.966 13.6904C214.442 13.6049 212.935 14.0516 211.688 14.9579C211.173 15.3822 210.764 15.9267 210.495 16.5464C210.225 17.1661 210.104 17.8429 210.14 18.5207C210.133 19.3134 210.359 20.0898 210.789 20.7475C211.309 21.4913 212.009 22.0819 212.82 22.4605C213.942 22.9866 215.129 23.3497 216.348 23.5396C218.617 23.7724 220.761 24.7171 222.491 26.2459C223.11 26.906 223.594 27.6874 223.914 28.5437C224.234 29.3999 224.384 30.3136 224.355 31.2305C224.367 32.3217 224.169 33.4046 223.772 34.4165C223.408 35.344 222.838 36.1711 222.108 36.8318C221.363 37.5105 220.491 38.0236 219.544 38.3392C218.462 38.7185 217.325 38.9038 216.182 38.8872Z" fill="#AB47BC"/>
<path d="M256.663 38.5444C256.533 38.5509 256.403 38.5282 256.283 38.4779C256.162 38.4276 256.053 38.3509 255.964 38.2531C255.872 38.1595 255.799 38.0473 255.75 37.9236C255.702 37.7998 255.678 37.6673 255.681 37.5338V28.6094L246.56 13.5874C246.419 13.364 246.355 13.0988 246.377 12.8336C246.404 12.6035 246.51 12.391 246.676 12.2341C246.851 12.0758 247.076 11.9902 247.309 11.9943C247.465 11.9878 247.62 12.0231 247.758 12.097C247.893 12.169 248.011 12.2681 248.108 12.3882L257.396 27.9757H256.031L265.185 12.5595C265.291 12.3519 265.445 12.1753 265.635 12.0457C265.785 11.9525 265.959 11.9049 266.134 11.9086C266.25 11.903 266.365 11.9213 266.474 11.9625C266.583 12.0037 266.682 12.0669 266.767 12.1484C266.925 12.3156 267.025 12.5327 267.05 12.765C267.078 13.0253 267.012 13.2871 266.867 13.5017L257.745 28.5239V37.4652C257.752 37.5991 257.729 37.7327 257.681 37.8569C257.632 37.9811 257.557 38.0931 257.462 38.1847C257.37 38.3095 257.248 38.4081 257.108 38.471C256.968 38.5339 256.815 38.5591 256.663 38.5444Z" fill="#AB47BC"/>
<path d="M298.907 38.8872C297.613 38.9092 296.324 38.7066 295.096 38.2878C293.996 37.9267 292.978 37.3445 292.099 36.5748C291.272 35.8587 290.593 34.9792 290.102 33.9883C290.045 33.8654 290.015 33.7308 290.015 33.5944C290.015 33.458 290.045 33.3234 290.102 33.2005C290.165 33.073 290.255 32.9611 290.364 32.8724C290.473 32.7837 290.6 32.7202 290.735 32.6865C290.848 32.6361 290.969 32.6102 291.092 32.6102C291.216 32.6102 291.338 32.6361 291.45 32.6865C291.698 32.7922 291.899 32.9872 292.017 33.2348C292.857 34.7652 294.251 35.8918 295.895 36.3693C296.877 36.6712 297.899 36.8157 298.924 36.7975C300.039 36.8221 301.145 36.6001 302.17 36.1466C303.05 35.7554 303.789 35.0906 304.284 34.2453C304.805 33.3209 305.064 32.2647 305.032 31.1963C305.048 30.4847 304.916 29.7779 304.646 29.1225C304.377 28.467 303.975 27.8777 303.468 27.3937C302.12 26.228 300.447 25.5323 298.691 25.4066C296.565 25.1948 294.548 24.3362 292.898 22.9402C292.238 22.3668 291.709 21.6501 291.349 20.8417C290.99 20.0332 290.808 19.1531 290.818 18.264C290.807 17.0469 291.149 15.8541 291.8 14.8381C292.478 13.8051 293.431 12.9961 294.546 12.5086C295.829 11.9235 297.222 11.6368 298.624 11.6691C299.71 11.6559 300.789 11.8536 301.803 12.2516C302.723 12.6049 303.578 13.1144 304.334 13.759C304.998 14.3014 305.562 14.963 305.998 15.7117C306.076 15.8276 306.129 15.9596 306.152 16.0988C306.175 16.2379 306.168 16.3807 306.131 16.5168C306.092 16.6523 306.022 16.776 305.926 16.8774C305.83 16.9789 305.712 17.055 305.582 17.0991C305.346 17.1928 305.085 17.1928 304.85 17.0991C304.608 17.0215 304.398 16.8652 304.25 16.6537C303.914 16.1369 303.517 15.6652 303.069 15.2492C302.535 14.7674 301.92 14.39 301.254 14.1358C300.406 13.8214 299.509 13.6704 298.608 13.6904C297.088 13.5993 295.584 14.0466 294.347 14.9579C293.827 15.3785 293.413 15.922 293.141 16.5423C292.868 17.1625 292.745 17.8411 292.782 18.5207C292.775 19.3134 293.001 20.0899 293.431 20.7476C293.955 21.4871 294.654 22.0767 295.462 22.4605C296.59 22.9842 297.783 23.3473 299.007 23.5396C301.271 23.7715 303.41 24.7166 305.132 26.246C305.752 26.906 306.236 27.6875 306.556 28.5437C306.876 29.3999 307.026 30.3136 306.997 31.2306C307.014 32.3206 306.822 33.4034 306.431 34.4166C306.065 35.3431 305.495 36.1699 304.766 36.8318C304.024 37.5142 303.151 38.0279 302.203 38.3392C301.143 38.7135 300.028 38.8988 298.907 38.8872Z" fill="#AB47BC"/>
<path d="M86.5657 57.4031H85.4941L88.5934 48.7297H89.6484L92.7477 57.4031H91.6761L89.1539 50.1018H89.0879L86.5657 57.4031ZM86.9613 54.015H91.2805V54.9467H86.9613V54.015Z" fill="#AB47BC"/>
<path d="M94.8748 48.7297H96.0947L98.9632 55.9293H99.0621L101.931 48.7297H103.15V57.4031H102.194V50.8133H102.112L99.4742 57.4031H98.551L95.9134 50.8133H95.8309V57.4031H94.8748V48.7297Z" fill="#AB47BC"/>
<path d="M106.358 57.4031H105.287L108.386 48.7297H109.441L112.54 57.4031H111.469L108.947 50.1018H108.881L106.358 57.4031ZM106.754 54.015H111.073V54.9467H106.754V54.015Z" fill="#AB47BC"/>
<path d="M114.387 57.4031V56.6408L118.937 49.6614H114.338V48.7297H120.157V49.492L115.607 56.4714H120.207V57.4031H114.387Z" fill="#AB47BC"/>
<path d="M123.756 48.7297V57.4031H122.733V48.7297H123.756Z" fill="#AB47BC"/>
<path d="M133.31 48.7297V57.4031H132.321L127.722 50.5931H127.639V57.4031H126.617V48.7297H127.606L132.222 55.5566H132.305V48.7297H133.31Z" fill="#AB47BC"/>
<path d="M141.938 51.4401C141.847 51.1549 141.728 50.8994 141.579 50.6736C141.434 50.4449 141.259 50.2501 141.056 50.0891C140.855 49.9282 140.627 49.8054 140.372 49.7207C140.116 49.636 139.836 49.5936 139.531 49.5936C139.031 49.5936 138.576 49.7263 138.167 49.9917C137.757 50.2571 137.432 50.6481 137.19 51.1648C136.948 51.6815 136.827 52.3154 136.827 53.0664C136.827 53.8174 136.95 54.4512 137.194 54.9679C137.439 55.4846 137.77 55.8756 138.187 56.141C138.605 56.4064 139.075 56.5391 139.597 56.5391C140.08 56.5391 140.506 56.4332 140.874 56.2215C141.245 56.0069 141.534 55.7048 141.74 55.3152C141.949 54.9227 142.053 54.4611 142.053 53.9303L142.366 53.9981H139.828V53.0664H143.042V53.9981C143.042 54.7124 142.894 55.3335 142.597 55.8615C142.303 56.3895 141.897 56.7989 141.377 57.0897C140.861 57.3777 140.267 57.5217 139.597 57.5217C138.85 57.5217 138.193 57.341 137.627 56.9796C137.064 56.6182 136.624 56.1043 136.308 55.438C135.995 54.7717 135.838 53.9811 135.838 53.0664C135.838 52.3803 135.927 51.7634 136.106 51.2156C136.287 50.6651 136.543 50.1964 136.873 49.8096C137.202 49.4228 137.593 49.1263 138.043 48.9202C138.494 48.7141 138.99 48.6111 139.531 48.6111C139.976 48.6111 140.391 48.6803 140.776 48.8186C141.163 48.9541 141.508 49.1475 141.81 49.3988C142.115 49.6473 142.369 49.9451 142.572 50.2924C142.776 50.6369 142.916 51.0194 142.993 51.4401H141.938Z" fill="#AB47BC"/>
<path d="M145.605 57.4031V48.7297H146.627V56.4714H150.551V57.4031H145.605Z" fill="#AB47BC"/>
<path d="M151.824 48.7297H152.994L155.335 52.7784H155.434L157.775 48.7297H158.945L155.896 53.8287V57.4031H154.874V53.8287L151.824 48.7297Z" fill="#AB47BC"/>
<path d="M166.178 48.7297V57.4031H165.156V48.7297H166.178Z" fill="#AB47BC"/>
<path d="M175.733 48.7297V57.4031H174.744L170.145 50.5931H170.062V57.4031H169.04V48.7297H170.029L174.645 55.5566H174.728V48.7297H175.733Z" fill="#AB47BC"/>
<path d="M178.129 49.6614V48.7297H184.46V49.6614H181.805V57.4031H180.783V49.6614H178.129Z" fill="#AB47BC"/>
<path d="M186.849 57.4031V48.7297H191.943V49.6614H187.871V52.592H191.68V53.5238H187.871V56.4714H192.009V57.4031H186.849Z" fill="#AB47BC"/>
<path d="M200.368 51.4401C200.277 51.1549 200.158 50.8994 200.009 50.6736C199.864 50.4449 199.689 50.2501 199.486 50.0891C199.285 49.9282 199.057 49.8054 198.802 49.7207C198.546 49.636 198.266 49.5936 197.961 49.5936C197.461 49.5936 197.006 49.7263 196.597 49.9917C196.187 50.2571 195.862 50.6481 195.62 51.1648C195.378 51.6815 195.257 52.3154 195.257 53.0664C195.257 53.8174 195.38 54.4512 195.624 54.9679C195.869 55.4846 196.2 55.8756 196.617 56.141C197.035 56.4064 197.505 56.5391 198.027 56.5391C198.511 56.5391 198.936 56.4332 199.305 56.2215C199.675 56.0069 199.964 55.7048 200.17 55.3152C200.379 54.9227 200.483 54.4611 200.483 53.9303L200.796 53.9981H198.258V53.0664H201.472V53.9981C201.472 54.7124 201.324 55.3335 201.027 55.8615C200.733 56.3895 200.327 56.7989 199.807 57.0897C199.291 57.3777 198.697 57.5217 198.027 57.5217C197.28 57.5217 196.623 57.341 196.057 56.9796C195.494 56.6182 195.054 56.1043 194.738 55.438C194.425 54.7717 194.268 53.9811 194.268 53.0664C194.268 52.3803 194.358 51.7634 194.536 51.2156C194.718 50.6651 194.973 50.1964 195.303 49.8096C195.632 49.4228 196.023 49.1263 196.473 48.9202C196.924 48.7141 197.42 48.6111 197.961 48.6111C198.406 48.6111 198.821 48.6803 199.206 48.8186C199.593 48.9541 199.938 49.1475 200.24 49.3988C200.545 49.6473 200.799 49.9451 201.003 50.2924C201.206 50.6369 201.346 51.0194 201.423 51.4401H200.368Z" fill="#AB47BC"/>
<path d="M204.035 57.4031V48.7297H206.887C207.547 48.7297 208.088 48.8454 208.511 49.0769C208.934 49.3056 209.247 49.6204 209.451 50.0214C209.654 50.4223 209.756 50.8783 209.756 51.3893C209.756 51.9003 209.654 52.3535 209.451 52.7487C209.247 53.144 208.936 53.4546 208.515 53.6805C208.095 53.9035 207.558 54.015 206.904 54.015H204.596V53.0664H206.871C207.321 53.0664 207.684 52.9986 207.959 52.8631C208.236 52.7276 208.437 52.5356 208.561 52.2871C208.687 52.0358 208.75 51.7366 208.75 51.3893C208.75 51.042 208.687 50.7385 208.561 50.4787C208.434 50.219 208.232 50.0185 207.955 49.8774C207.677 49.7334 207.31 49.6614 206.854 49.6614H205.057V57.4031H204.035ZM208.008 53.5068L210.085 57.4031H208.898L206.854 53.5068H208.008Z" fill="#AB47BC"/>
<path d="M212.617 57.4031H211.546L214.645 48.7297H215.7L218.799 57.4031H217.728L215.206 50.1018H215.14L212.617 57.4031ZM213.013 54.015H217.332V54.9467H213.013V54.015Z" fill="#AB47BC"/>
<path d="M219.479 49.6614V48.7297H225.809V49.6614H223.155V57.4031H222.133V49.6614H219.479Z" fill="#AB47BC"/>
<path d="M228.199 57.4031V48.7297H233.293V49.6614H229.221V52.592H233.029V53.5238H229.221V56.4714H233.359V57.4031H228.199Z" fill="#AB47BC"/>
<path d="M238.552 57.4031H235.948V48.7297H238.668C239.487 48.7297 240.187 48.9033 240.77 49.2506C241.352 49.595 241.799 50.0905 242.109 50.7371C242.42 51.3808 242.575 52.1516 242.575 53.0494C242.575 53.9529 242.418 54.7307 242.105 55.3829C241.792 56.0323 241.336 56.5321 240.737 56.8822C240.138 57.2294 239.41 57.4031 238.552 57.4031ZM236.97 56.4714H238.487C239.184 56.4714 239.763 56.333 240.222 56.0563C240.68 55.7796 241.023 55.3858 241.248 54.8747C241.473 54.3637 241.586 53.7553 241.586 53.0494C241.586 52.3492 241.475 51.7464 241.252 51.2411C241.029 50.7328 240.697 50.3432 240.255 50.0722C239.812 49.7983 239.261 49.6614 238.602 49.6614H236.97V56.4714Z" fill="#AB47BC"/>
<path d="M253.794 50.898C253.745 50.4689 253.544 50.1357 253.192 49.8985C252.841 49.6614 252.409 49.5428 251.898 49.5428C251.525 49.5428 251.198 49.6049 250.917 49.7291C250.64 49.8534 250.423 50.0242 250.266 50.2416C250.112 50.459 250.035 50.706 250.035 50.9827C250.035 51.2142 250.089 51.4133 250.196 51.5799C250.306 51.7436 250.446 51.8806 250.617 51.9907C250.787 52.0979 250.966 52.1869 251.152 52.2575C251.339 52.3252 251.511 52.3803 251.668 52.4226L252.525 52.6598C252.745 52.7191 252.989 52.801 253.258 52.9054C253.53 53.0099 253.79 53.1525 254.037 53.3332C254.287 53.511 254.493 53.7397 254.656 54.0193C254.818 54.2988 254.899 54.6418 254.899 55.0484C254.899 55.5171 254.779 55.9406 254.54 56.3189C254.304 56.6972 253.958 56.9979 253.502 57.221C253.048 57.444 252.497 57.5555 251.849 57.5555C251.244 57.5555 250.721 57.4553 250.279 57.2548C249.839 57.0544 249.493 56.7749 249.24 56.4163C248.99 56.0577 248.849 55.6413 248.816 55.167H249.871C249.898 55.4945 250.005 55.7655 250.192 55.9801C250.382 56.1918 250.621 56.35 250.909 56.4544C251.2 56.5561 251.514 56.6069 251.849 56.6069C252.239 56.6069 252.589 56.5419 252.9 56.4121C253.21 56.2794 253.456 56.0958 253.638 55.8615C253.819 55.6243 253.91 55.3477 253.91 55.0314C253.91 54.7435 253.831 54.5091 253.675 54.3284C253.518 54.1477 253.312 54.0009 253.056 53.888C252.801 53.775 252.525 53.6762 252.228 53.5915L251.189 53.2866C250.53 53.0918 250.008 52.8137 249.623 52.4523C249.239 52.0909 249.046 51.618 249.046 51.0335C249.046 50.5479 249.174 50.1244 249.43 49.763C249.688 49.3988 250.034 49.1165 250.468 48.916C250.905 48.7127 251.393 48.6111 251.931 48.6111C252.475 48.6111 252.959 48.7113 253.382 48.9118C253.805 49.1094 254.14 49.3805 254.388 49.7249C254.638 50.0694 254.77 50.4604 254.783 50.898H253.794Z" fill="#AB47BC"/>
<path d="M256.666 48.7297H257.837L260.178 52.7784H260.276L262.617 48.7297H263.788L260.738 53.8287V57.4031H259.716V53.8287L256.666 48.7297Z" fill="#AB47BC"/>
<path d="M270.538 50.898C270.489 50.4689 270.288 50.1357 269.936 49.8985C269.585 49.6614 269.153 49.5428 268.642 49.5428C268.269 49.5428 267.942 49.6049 267.661 49.7291C267.384 49.8534 267.167 50.0242 267.01 50.2416C266.856 50.459 266.779 50.706 266.779 50.9827C266.779 51.2142 266.833 51.4133 266.94 51.5799C267.05 51.7436 267.19 51.8806 267.361 51.9907C267.531 52.0979 267.709 52.1869 267.896 52.2575C268.083 52.3252 268.255 52.3803 268.411 52.4226L269.269 52.6598C269.488 52.7191 269.733 52.801 270.002 52.9054C270.274 53.0099 270.534 53.1525 270.781 53.3332C271.031 53.511 271.237 53.7397 271.399 54.0193C271.562 54.2988 271.643 54.6418 271.643 55.0484C271.643 55.5171 271.523 55.9406 271.284 56.3189C271.048 56.6972 270.702 56.9979 270.245 57.221C269.792 57.444 269.241 57.5555 268.593 57.5555C267.988 57.5555 267.465 57.4553 267.023 57.2548C266.583 57.0544 266.237 56.7749 265.984 56.4163C265.734 56.0577 265.592 55.6413 265.559 55.167H266.615C266.642 55.4945 266.749 55.7655 266.936 55.9801C267.126 56.1918 267.365 56.35 267.653 56.4544C267.944 56.5561 268.258 56.6069 268.593 56.6069C268.983 56.6069 269.333 56.5419 269.644 56.4121C269.954 56.2794 270.2 56.0958 270.381 55.8615C270.563 55.6243 270.653 55.3477 270.653 55.0314C270.653 54.7435 270.575 54.5091 270.419 54.3284C270.262 54.1477 270.056 54.0009 269.8 53.888C269.545 53.775 269.269 53.6762 268.972 53.5915L267.933 53.2866C267.274 53.0918 266.752 52.8137 266.367 52.4523C265.983 52.0909 265.79 51.618 265.79 51.0335C265.79 50.5479 265.918 50.1244 266.174 49.763C266.432 49.3988 266.778 49.1165 267.212 48.916C267.649 48.7127 268.137 48.6111 268.675 48.6111C269.219 48.6111 269.703 48.7113 270.126 48.9118C270.549 49.1094 270.884 49.3805 271.132 49.7249C271.382 50.0694 271.513 50.4604 271.527 50.898H270.538Z" fill="#AB47BC"/>
<path d="M273.674 49.6614V48.7297H280.004V49.6614H277.35V57.4031H276.328V49.6614H273.674Z" fill="#AB47BC"/>
<path d="M282.394 57.4031V48.7297H287.488V49.6614H283.416V52.592H287.224V53.5238H283.416V56.4714H287.554V57.4031H282.394Z" fill="#AB47BC"/>
<path d="M290.143 48.7297H291.363L294.231 55.9293H294.33L297.198 48.7297H298.418V57.4031H297.462V50.8133H297.38L294.742 57.4031H293.819L291.181 50.8133H291.099V57.4031H290.143V48.7297Z" fill="#AB47BC"/>
<path d="M305.896 50.898C305.846 50.4689 305.646 50.1357 305.294 49.8985C304.943 49.6614 304.511 49.5428 304 49.5428C303.626 49.5428 303.3 49.6049 303.019 49.7291C302.742 49.8534 302.525 50.0242 302.368 50.2416C302.214 50.459 302.137 50.706 302.137 50.9827C302.137 51.2142 302.191 51.4133 302.298 51.5799C302.408 51.7436 302.548 51.8806 302.718 51.9907C302.889 52.0979 303.067 52.1869 303.254 52.2575C303.441 52.3252 303.613 52.3803 303.769 52.4226L304.627 52.6598C304.846 52.7191 305.091 52.801 305.36 52.9054C305.632 53.0099 305.892 53.1525 306.139 53.3332C306.389 53.511 306.595 53.7397 306.757 54.0193C306.919 54.2988 307 54.6418 307 55.0484C307 55.5171 306.881 55.9406 306.642 56.3189C306.406 56.6972 306.059 56.9979 305.603 57.221C305.15 57.444 304.599 57.5555 303.951 57.5555C303.346 57.5555 302.823 57.4553 302.38 57.2548C301.941 57.0544 301.595 56.7749 301.342 56.4163C301.092 56.0577 300.95 55.6413 300.917 55.167H301.972C302 55.4945 302.107 55.7655 302.294 55.9801C302.483 56.1918 302.723 56.35 303.011 56.4544C303.302 56.5561 303.615 56.6069 303.951 56.6069C304.341 56.6069 304.691 56.5419 305.002 56.4121C305.312 56.2794 305.558 56.0958 305.739 55.8615C305.921 55.6243 306.011 55.3477 306.011 55.0314C306.011 54.7435 305.933 54.5091 305.776 54.3284C305.62 54.1477 305.414 54.0009 305.158 53.888C304.903 53.775 304.627 53.6762 304.33 53.5915L303.291 53.2866C302.632 53.0918 302.11 52.8137 301.725 52.4523C301.34 52.0909 301.148 51.618 301.148 51.0335C301.148 50.5479 301.276 50.1244 301.531 49.763C301.79 49.3988 302.136 49.1165 302.57 48.916C303.007 48.7127 303.495 48.6111 304.033 48.6111C304.577 48.6111 305.061 48.7113 305.484 48.9118C305.907 49.1094 306.242 49.3805 306.489 49.7249C306.739 50.0694 306.871 50.4604 306.885 50.898H305.896Z" fill="#AB47BC"/>
</svg>
